<svg width="148" height="63" viewBox="0 0 148 63" fill="none" xmlns="http://www.w3.org/2000/svg">
<path d="M0 0H22.4579C32.3686 0 40.4028 8.03418 40.4028 17.9448V40.4028H17.9448C8.03417 40.4028 0 32.3686 0 22.4579V0Z" fill="#131313"/>
<path d="M62.2206 0L62.2206 24.3839C62.2206 34.2945 54.1864 42.3287 44.2757 42.3287L19.8919 42.3287L19.8919 17.9448C19.8919 8.03417 27.9261 -1.49906e-06 37.8367 -1.06585e-06L62.2206 0Z" fill="#EE0000"/>
<path d="M40.4028 21.8179L40.4028 44.2758C40.4028 54.1865 32.3686 62.2206 22.4579 62.2206L-9.39546e-06 62.2206L-8.41379e-06 39.7627C-7.98058e-06 29.852 8.03418 21.8179 17.9448 21.8179L40.4028 21.8179Z" fill="#EE0000"/>
<path d="M18.585 19.0906H44.2757C54.1864 19.0906 62.2206 27.1248 62.2206 37.0354V62.7262H36.5298C26.6191 62.7262 18.585 54.692 18.585 44.7814V19.0906Z" fill="#131313"/>
<path d="M79.8599 24.7885H85.6839V28.2205H75.4139V9.96846H79.8599V24.7885ZM96.4365 28.4025C94.7205 28.4025 93.1432 28.0038 91.7045 27.2065C90.2832 26.4091 89.1478 25.2998 88.2985 23.8785C87.4665 22.4398 87.0505 20.8278 87.0505 19.0425C87.0505 17.2571 87.4665 15.6538 88.2985 14.2325C89.1478 12.8111 90.2832 11.7018 91.7045 10.9045C93.1432 10.1071 94.7205 9.70846 96.4365 9.70846C98.1525 9.70846 99.7212 10.1071 101.143 10.9045C102.581 11.7018 103.708 12.8111 104.523 14.2325C105.355 15.6538 105.771 17.2571 105.771 19.0425C105.771 20.8278 105.355 22.4398 104.523 23.8785C103.691 25.2998 102.564 26.4091 101.143 27.2065C99.7212 28.0038 98.1525 28.4025 96.4365 28.4025ZM96.4365 24.3465C97.8925 24.3465 99.0538 23.8611 99.9205 22.8905C100.805 21.9198 101.247 20.6371 101.247 19.0425C101.247 17.4305 100.805 16.1478 99.9205 15.1945C99.0538 14.2238 97.8925 13.7385 96.4365 13.7385C94.9632 13.7385 93.7845 14.2151 92.9005 15.1685C92.0338 16.1218 91.6005 17.4131 91.6005 19.0425C91.6005 20.6545 92.0338 21.9458 92.9005 22.9165C93.7845 23.8698 94.9632 24.3465 96.4365 24.3465ZM120.36 15.7405C120.031 15.1338 119.554 14.6745 118.93 14.3625C118.323 14.0331 117.604 13.8685 116.772 13.8685C115.333 13.8685 114.181 14.3451 113.314 15.2985C112.447 16.2345 112.014 17.4911 112.014 19.0685C112.014 20.7498 112.465 22.0671 113.366 23.0205C114.285 23.9565 115.541 24.4245 117.136 24.4245C118.228 24.4245 119.147 24.1471 119.892 23.5925C120.655 23.0378 121.209 22.2405 121.556 21.2005H115.914V17.9245H125.586V22.0585C125.257 23.1678 124.693 24.1991 123.896 25.1525C123.116 26.1058 122.119 26.8771 120.906 27.4665C119.693 28.0558 118.323 28.3505 116.798 28.3505C114.995 28.3505 113.383 27.9605 111.962 27.1805C110.558 26.3831 109.457 25.2825 108.66 23.8785C107.88 22.4745 107.49 20.8711 107.49 19.0685C107.49 17.2658 107.88 15.6625 108.66 14.2585C109.457 12.8371 110.558 11.7365 111.962 10.9565C113.366 10.1591 114.969 9.76046 116.772 9.76046C118.956 9.76046 120.793 10.2891 122.284 11.3465C123.792 12.4038 124.789 13.8685 125.274 15.7405H120.36ZM136.681 28.4025C134.965 28.4025 133.387 28.0038 131.949 27.2065C130.527 26.4091 129.392 25.2998 128.543 23.8785C127.711 22.4398 127.295 20.8278 127.295 19.0425C127.295 17.2571 127.711 15.6538 128.543 14.2325C129.392 12.8111 130.527 11.7018 131.949 10.9045C133.387 10.1071 134.965 9.70846 136.681 9.70846C138.397 9.70846 139.965 10.1071 141.387 10.9045C142.825 11.7018 143.952 12.8111 144.767 14.2325C145.599 15.6538 146.015 17.2571 146.015 19.0425C146.015 20.8278 145.599 22.4398 144.767 23.8785C143.935 25.2998 142.808 26.4091 141.387 27.2065C139.965 28.0038 138.397 28.4025 136.681 28.4025ZM136.681 24.3465C138.137 24.3465 139.298 23.8611 140.165 22.8905C141.049 21.9198 141.491 20.6371 141.491 19.0425C141.491 17.4305 141.049 16.1478 140.165 15.1945C139.298 14.2238 138.137 13.7385 136.681 13.7385C135.207 13.7385 134.029 14.2151 133.145 15.1685C132.278 16.1218 131.845 17.4131 131.845 19.0425C131.845 20.6545 132.278 21.9458 133.145 22.9165C134.029 23.8698 135.207 24.3465 136.681 24.3465ZM91.2219 35.9685V54.2205H86.7759V46.7065H79.8599V54.2205H75.4139V35.9685H79.8599V43.1185H86.7759V35.9685H91.2219ZM98.8775 39.5305V43.2225H104.831V46.6545H98.8775V50.6585H105.611V54.2205H94.4315V35.9685H105.611V39.5305H98.8775ZM117.806 54.2205L114.01 47.3305H112.944V54.2205H108.498V35.9685H115.96C117.399 35.9685 118.621 36.2198 119.626 36.7225C120.649 37.2251 121.411 37.9185 121.914 38.8025C122.417 39.6691 122.668 40.6398 122.668 41.7145C122.668 42.9278 122.321 44.0111 121.628 44.9645C120.952 45.9178 119.947 46.5938 118.612 46.9925L122.824 54.2205H117.806ZM112.944 44.1845H115.7C116.515 44.1845 117.121 43.9851 117.52 43.5865C117.936 43.1878 118.144 42.6245 118.144 41.8965C118.144 41.2031 117.936 40.6571 117.52 40.2585C117.121 39.8598 116.515 39.6605 115.7 39.6605H112.944V44.1845ZM129.905 39.5305V43.2225H135.859V46.6545H129.905V50.6585H136.639V54.2205H125.459V35.9685H136.639V39.5305H129.905Z" fill="white"/>
</svg>
